<mxfile host="Electron" agent="Mozilla/5.0 (Macintosh; Intel Mac OS X 10_15_7) AppleWebKit/537.36 (KHTML, like Gecko) draw.io/26.0.4 Chrome/128.0.6613.186 Electron/32.2.5 Safari/537.36" version="26.0.4">
  <diagram name="Page-1" id="PhxBp8120Z4Cl5BnsqYq">
    <mxGraphModel dx="1412" dy="943" grid="1" gridSize="10" guides="1" tooltips="1" connect="1" arrows="1" fold="1" page="1" pageScale="1" pageWidth="1100" pageHeight="850" math="0" shadow="0">
      <root>
        <mxCell id="0" />
        <mxCell id="1" parent="0" />
        <mxCell id="ge2YPgulV7cBcBBlR7BJ-18" value="" style="rounded=0;whiteSpace=wrap;html=1;strokeColor=none;fillColor=#1A1A1A;" vertex="1" parent="1">
          <mxGeometry x="320" y="240" width="410" height="340" as="geometry" />
        </mxCell>
        <mxCell id="ge2YPgulV7cBcBBlR7BJ-3" value="" style="ellipse;whiteSpace=wrap;html=1;aspect=fixed;strokeColor=none;fillColor=#41BF3F;" vertex="1" parent="1">
          <mxGeometry x="360" y="330" width="160" height="160" as="geometry" />
        </mxCell>
        <mxCell id="ge2YPgulV7cBcBBlR7BJ-5" value="" style="ellipse;whiteSpace=wrap;html=1;aspect=fixed;strokeColor=none;fillColor=#1A1A1A;" vertex="1" parent="1">
          <mxGeometry x="400" y="368.75" width="80" height="80" as="geometry" />
        </mxCell>
        <mxCell id="ge2YPgulV7cBcBBlR7BJ-4" value="" style="rounded=0;whiteSpace=wrap;html=1;fontColor=light-dark(#000000,#41BF3F);strokeColor=none;fillColor=#1A1A1A;" vertex="1" parent="1">
          <mxGeometry x="350" y="330" width="70" height="240" as="geometry" />
        </mxCell>
        <mxCell id="ge2YPgulV7cBcBBlR7BJ-2" value="" style="rounded=0;whiteSpace=wrap;html=1;fontColor=light-dark(#000000,#41BF3F);strokeColor=none;fillColor=#41BF3F;" vertex="1" parent="1">
          <mxGeometry x="370" y="330" width="40" height="240" as="geometry" />
        </mxCell>
        <mxCell id="ge2YPgulV7cBcBBlR7BJ-6" value="" style="ellipse;whiteSpace=wrap;html=1;aspect=fixed;strokeColor=none;fillColor=#41BF3F;" vertex="1" parent="1">
          <mxGeometry x="530" y="330" width="160" height="160" as="geometry" />
        </mxCell>
        <mxCell id="ge2YPgulV7cBcBBlR7BJ-7" value="" style="ellipse;whiteSpace=wrap;html=1;aspect=fixed;strokeColor=none;fillColor=#1A1A1A;" vertex="1" parent="1">
          <mxGeometry x="570" y="370" width="80" height="80" as="geometry" />
        </mxCell>
        <mxCell id="ge2YPgulV7cBcBBlR7BJ-10" value="" style="rounded=0;whiteSpace=wrap;html=1;fontColor=light-dark(#000000,#41BF3F);strokeColor=none;fillColor=#41BF3F;rotation=90;" vertex="1" parent="1">
          <mxGeometry x="578.75" y="368.75" width="40" height="82.5" as="geometry" />
        </mxCell>
        <mxCell id="ge2YPgulV7cBcBBlR7BJ-11" value="" style="rounded=0;whiteSpace=wrap;html=1;fontColor=light-dark(#000000,#41BF3F);strokeColor=none;fillColor=#1A1A1A;" vertex="1" parent="1">
          <mxGeometry x="630" y="250" width="60" height="240" as="geometry" />
        </mxCell>
        <mxCell id="ge2YPgulV7cBcBBlR7BJ-8" value="" style="rounded=0;whiteSpace=wrap;html=1;fontColor=light-dark(#000000,#41BF3F);strokeColor=none;fillColor=#41BF3F;" vertex="1" parent="1">
          <mxGeometry x="640" y="250" width="40" height="240" as="geometry" />
        </mxCell>
        <mxCell id="ge2YPgulV7cBcBBlR7BJ-16" value="" style="rhombus;whiteSpace=wrap;html=1;fillColor=#1A1A1A;strokeColor=none;" vertex="1" parent="1">
          <mxGeometry x="320" y="280" width="100" height="90" as="geometry" />
        </mxCell>
        <mxCell id="ge2YPgulV7cBcBBlR7BJ-17" value="" style="rhombus;whiteSpace=wrap;html=1;fillColor=#1A1A1A;strokeColor=none;" vertex="1" parent="1">
          <mxGeometry x="630" y="448.75" width="100" height="90" as="geometry" />
        </mxCell>
      </root>
    </mxGraphModel>
  </diagram>
</mxfile>
